<svg xmlns="http://www.w3.org/2000/svg" version="1.1" xmlns:xlink="http://www.w3.org/1999/xlink" xmlns:svgjs="http://svgjs.dev/svgjs" width="1920" height="1080" preserveAspectRatio="none" viewBox="0 0 1920 1080"><g mask="url(&quot;#SvgjsMask1148&quot;)" fill="none"><rect width="1920" height="1080" x="0" y="0" fill="url(&quot;#SvgjsLinearGradient1149&quot;)"></rect><path d="M318.04 216.91 a99.76 99.76 0 1 0 199.52 0 a99.76 99.76 0 1 0 -199.52 0z" fill="rgba(211, 183, 20, 1)"></path><path d="M881.67 86.84a103.63 103.63 0 1 0 90.72 186.36z" fill="rgba(17, 128, 202, 1)"></path><path d="M203.46 366.83a2.54 2.54 0 1 0-2.18 4.59z" fill="rgba(25, 193, 83, 1)"></path><path d="M962.43 405.55 a40.33 40.33 0 1 0 80.66 0 a40.33 40.33 0 1 0 -80.66 0z" stroke="rgba(211, 183, 20, 1)"></path><path d="M708.41 837.19L815.19 837.19L815.19 890.68L708.41 890.68z" stroke="rgba(25, 193, 83, 1)"></path><path d="M1572.57 587.09L1631.16 587.09L1631.16 692.87L1572.57 692.87z" stroke="rgba(255, 255, 255, 1)"></path><path d="M764.93 116.5L782.28 116.5L782.28 133.85L764.93 133.85z" stroke="rgba(17, 128, 202, 1)"></path><path d="M106.99 587.91L190.75 587.91L190.75 671.67L106.99 671.67z" stroke="rgba(255, 255, 255, 1)"></path><path d="M1145.81 485.4a34.67 34.67 0 1 0 48.9-49.16z" stroke="rgba(17, 128, 202, 1)"></path><path d="M1356.9 922.96a23.84 23.84 0 1 0-26.25 39.81z" stroke="rgba(25, 193, 83, 1)"></path><path d="M44.79 94.15 a19.16 19.16 0 1 0 38.32 0 a19.16 19.16 0 1 0 -38.32 0z" fill="rgba(25, 193, 83, 1)"></path><path d="M1336.91 148.23 a61.23 61.23 0 1 0 122.46 0 a61.23 61.23 0 1 0 -122.46 0z" stroke="rgba(17, 128, 202, 1)"></path><path d="M1711.09 24.24 a104.8 104.8 0 1 0 209.6 0 a104.8 104.8 0 1 0 -209.6 0z" fill="rgba(17, 128, 202, 1)"></path><path d="M391.22 299.94L465.97 299.94L465.97 374.69L391.22 374.69z" stroke="rgba(211, 183, 20, 1)"></path><path d="M1660.7 475.7a80.21 80.21 0 1 0 157.12-32.36z" fill="rgba(17, 128, 202, 1)"></path><path d="M1329.61 954.6a74.36 74.36 0 1 0 119.72-88.24z" fill="rgba(25, 193, 83, 1)"></path><path d="M480.73 1067.63L529.12 1067.63L529.12 1112.86L480.73 1112.86z" fill="rgba(17, 128, 202, 1)"></path><path d="M739.72 827.48L809.64 827.48L809.64 901.22L739.72 901.22z" stroke="rgba(17, 128, 202, 1)"></path><path d="M633.58 985.69a92.54 92.54 0 1 0-168.05-77.54z" fill="rgba(17, 128, 202, 1)"></path><path d="M-15.39 605.03 a79.36 79.36 0 1 0 158.72 0 a79.36 79.36 0 1 0 -158.72 0z" stroke="rgba(17, 128, 202, 1)"></path><path d="M1490.44 179.01 a41.63 41.63 0 1 0 83.26 0 a41.63 41.63 0 1 0 -83.26 0z" stroke="rgba(17, 128, 202, 1)"></path><path d="M1162.88 1059.04L1270.61 1059.04L1270.61 1166.77L1162.88 1166.77z" stroke="rgba(255, 255, 255, 1)"></path><path d="M1421.92 334.41L1448.06 334.41L1448.06 423.88L1421.92 423.88z" fill="rgba(211, 183, 20, 1)"></path></g><defs><mask id="SvgjsMask1148"><rect width="1920" height="1080" fill="#ffffff"></rect></mask><linearGradient x1="0%" y1="50%" x2="100%" y2="50%" gradientUnits="userSpaceOnUse" id="SvgjsLinearGradient1149"><stop stop-color="#0e2a47" offset="0"></stop><stop stop-color="rgba(0, 158, 93, 1)" offset="1"></stop></linearGradient></defs></svg>